<mxfile host="app.diagrams.net" modified="2024-06-06T23:16:55.940Z" agent="Mozilla/5.0 (Windows NT 10.0; Win64; x64) AppleWebKit/537.36 (KHTML, like Gecko) Chrome/122.0.0.0 YaBrowser/24.4.0.0 Safari/537.36" etag="dAHqCq3E8PSNeTm73N2x" version="24.5.1" type="github">
  <diagram id="C5RBs43oDa-KdzZeNtuy" name="Page-1">
    <mxGraphModel dx="989" dy="1742" grid="1" gridSize="10" guides="1" tooltips="1" connect="1" arrows="1" fold="1" page="1" pageScale="1" pageWidth="827" pageHeight="1169" math="0" shadow="0">
      <root>
        <mxCell id="WIyWlLk6GJQsqaUBKTNV-0" />
        <mxCell id="WIyWlLk6GJQsqaUBKTNV-1" parent="WIyWlLk6GJQsqaUBKTNV-0" />
        <mxCell id="WIyWlLk6GJQsqaUBKTNV-2" value="" style="rounded=0;html=1;jettySize=auto;orthogonalLoop=1;fontSize=11;endArrow=block;endFill=0;endSize=8;strokeWidth=1;shadow=0;labelBackgroundColor=none;edgeStyle=orthogonalEdgeStyle;" parent="WIyWlLk6GJQsqaUBKTNV-1" source="WIyWlLk6GJQsqaUBKTNV-3" target="Zlj9B1IX_NMJsLDkZR1o-1" edge="1">
          <mxGeometry relative="1" as="geometry" />
        </mxCell>
        <mxCell id="WIyWlLk6GJQsqaUBKTNV-3" value="Пользователь отправляет запрос на бронирование (дата и место)" style="rounded=1;whiteSpace=wrap;html=1;fontSize=12;glass=0;strokeWidth=1;shadow=0;" parent="WIyWlLk6GJQsqaUBKTNV-1" vertex="1">
          <mxGeometry x="338" y="-1140" width="150" height="60" as="geometry" />
        </mxCell>
        <mxCell id="Zlj9B1IX_NMJsLDkZR1o-4" style="edgeStyle=orthogonalEdgeStyle;rounded=0;orthogonalLoop=1;jettySize=auto;html=1;entryX=0.5;entryY=0;entryDx=0;entryDy=0;" edge="1" parent="WIyWlLk6GJQsqaUBKTNV-1" source="Zlj9B1IX_NMJsLDkZR1o-1" target="Zlj9B1IX_NMJsLDkZR1o-5">
          <mxGeometry relative="1" as="geometry">
            <mxPoint x="596.75" y="-939.9999999999998" as="targetPoint" />
          </mxGeometry>
        </mxCell>
        <mxCell id="Zlj9B1IX_NMJsLDkZR1o-1" value="Клиентское приложение пересылает запрос к ИИ" style="rounded=1;whiteSpace=wrap;html=1;" vertex="1" parent="WIyWlLk6GJQsqaUBKTNV-1">
          <mxGeometry x="338" y="-1050" width="150" height="70" as="geometry" />
        </mxCell>
        <mxCell id="Zlj9B1IX_NMJsLDkZR1o-5" value="ИИ обрабатывает запрос и извлекает данные (дата и место)" style="rounded=1;whiteSpace=wrap;html=1;" vertex="1" parent="WIyWlLk6GJQsqaUBKTNV-1">
          <mxGeometry x="338" y="-960" width="150" height="70" as="geometry" />
        </mxCell>
        <mxCell id="Zlj9B1IX_NMJsLDkZR1o-8" value="ИИ отправляет запрос на сервер бронирования (дата и место)" style="rounded=1;whiteSpace=wrap;html=1;" vertex="1" parent="WIyWlLk6GJQsqaUBKTNV-1">
          <mxGeometry x="339" y="-870" width="150" height="70" as="geometry" />
        </mxCell>
        <mxCell id="Zlj9B1IX_NMJsLDkZR1o-15" style="edgeStyle=orthogonalEdgeStyle;rounded=0;orthogonalLoop=1;jettySize=auto;html=1;entryX=0.5;entryY=0;entryDx=0;entryDy=0;" edge="1" parent="WIyWlLk6GJQsqaUBKTNV-1" source="Zlj9B1IX_NMJsLDkZR1o-9" target="Zlj9B1IX_NMJsLDkZR1o-14">
          <mxGeometry relative="1" as="geometry" />
        </mxCell>
        <mxCell id="Zlj9B1IX_NMJsLDkZR1o-9" value="Сервер бронирования проверяет доступность (дата и место)" style="rounded=1;whiteSpace=wrap;html=1;" vertex="1" parent="WIyWlLk6GJQsqaUBKTNV-1">
          <mxGeometry x="339" y="-780" width="150" height="70" as="geometry" />
        </mxCell>
        <mxCell id="Zlj9B1IX_NMJsLDkZR1o-26" style="edgeStyle=orthogonalEdgeStyle;rounded=0;orthogonalLoop=1;jettySize=auto;html=1;" edge="1" parent="WIyWlLk6GJQsqaUBKTNV-1" source="Zlj9B1IX_NMJsLDkZR1o-12" target="Zlj9B1IX_NMJsLDkZR1o-24">
          <mxGeometry relative="1" as="geometry" />
        </mxCell>
        <mxCell id="Zlj9B1IX_NMJsLDkZR1o-12" value="Нет (место)" style="rounded=1;whiteSpace=wrap;html=1;" vertex="1" parent="WIyWlLk6GJQsqaUBKTNV-1">
          <mxGeometry x="110" y="-550" width="80" height="50" as="geometry" />
        </mxCell>
        <mxCell id="Zlj9B1IX_NMJsLDkZR1o-17" style="edgeStyle=orthogonalEdgeStyle;rounded=0;orthogonalLoop=1;jettySize=auto;html=1;" edge="1" parent="WIyWlLk6GJQsqaUBKTNV-1" source="Zlj9B1IX_NMJsLDkZR1o-14" target="Zlj9B1IX_NMJsLDkZR1o-12">
          <mxGeometry relative="1" as="geometry" />
        </mxCell>
        <mxCell id="Zlj9B1IX_NMJsLDkZR1o-19" style="edgeStyle=orthogonalEdgeStyle;rounded=0;orthogonalLoop=1;jettySize=auto;html=1;entryX=0.5;entryY=0;entryDx=0;entryDy=0;" edge="1" parent="WIyWlLk6GJQsqaUBKTNV-1" source="Zlj9B1IX_NMJsLDkZR1o-14" target="Zlj9B1IX_NMJsLDkZR1o-18">
          <mxGeometry relative="1" as="geometry" />
        </mxCell>
        <mxCell id="Zlj9B1IX_NMJsLDkZR1o-21" style="edgeStyle=orthogonalEdgeStyle;rounded=0;orthogonalLoop=1;jettySize=auto;html=1;entryX=0.5;entryY=0;entryDx=0;entryDy=0;" edge="1" parent="WIyWlLk6GJQsqaUBKTNV-1" source="Zlj9B1IX_NMJsLDkZR1o-14" target="Zlj9B1IX_NMJsLDkZR1o-20">
          <mxGeometry relative="1" as="geometry" />
        </mxCell>
        <mxCell id="Zlj9B1IX_NMJsLDkZR1o-14" value="Доступность данных найдена?" style="rhombus;whiteSpace=wrap;html=1;" vertex="1" parent="WIyWlLk6GJQsqaUBKTNV-1">
          <mxGeometry x="329" y="-680" width="170" height="90" as="geometry" />
        </mxCell>
        <mxCell id="Zlj9B1IX_NMJsLDkZR1o-31" style="edgeStyle=orthogonalEdgeStyle;rounded=0;orthogonalLoop=1;jettySize=auto;html=1;entryX=0.5;entryY=0;entryDx=0;entryDy=0;" edge="1" parent="WIyWlLk6GJQsqaUBKTNV-1" source="Zlj9B1IX_NMJsLDkZR1o-18" target="Zlj9B1IX_NMJsLDkZR1o-25">
          <mxGeometry relative="1" as="geometry" />
        </mxCell>
        <mxCell id="Zlj9B1IX_NMJsLDkZR1o-18" value="Нет (дата)" style="rounded=1;whiteSpace=wrap;html=1;" vertex="1" parent="WIyWlLk6GJQsqaUBKTNV-1">
          <mxGeometry x="280" y="-550" width="80" height="50" as="geometry" />
        </mxCell>
        <mxCell id="Zlj9B1IX_NMJsLDkZR1o-30" style="edgeStyle=orthogonalEdgeStyle;rounded=0;orthogonalLoop=1;jettySize=auto;html=1;" edge="1" parent="WIyWlLk6GJQsqaUBKTNV-1" source="Zlj9B1IX_NMJsLDkZR1o-20" target="Zlj9B1IX_NMJsLDkZR1o-27">
          <mxGeometry relative="1" as="geometry" />
        </mxCell>
        <mxCell id="Zlj9B1IX_NMJsLDkZR1o-20" value="Нет (дата и место)" style="rounded=1;whiteSpace=wrap;html=1;" vertex="1" parent="WIyWlLk6GJQsqaUBKTNV-1">
          <mxGeometry x="480" y="-550" width="80" height="50" as="geometry" />
        </mxCell>
        <mxCell id="Zlj9B1IX_NMJsLDkZR1o-29" style="edgeStyle=orthogonalEdgeStyle;rounded=0;orthogonalLoop=1;jettySize=auto;html=1;entryX=0.5;entryY=0;entryDx=0;entryDy=0;" edge="1" parent="WIyWlLk6GJQsqaUBKTNV-1" source="Zlj9B1IX_NMJsLDkZR1o-22" target="Zlj9B1IX_NMJsLDkZR1o-28">
          <mxGeometry relative="1" as="geometry" />
        </mxCell>
        <mxCell id="Zlj9B1IX_NMJsLDkZR1o-22" value="Да" style="rounded=1;whiteSpace=wrap;html=1;" vertex="1" parent="WIyWlLk6GJQsqaUBKTNV-1">
          <mxGeometry x="650" y="-550" width="80" height="50" as="geometry" />
        </mxCell>
        <mxCell id="Zlj9B1IX_NMJsLDkZR1o-23" style="edgeStyle=orthogonalEdgeStyle;rounded=0;orthogonalLoop=1;jettySize=auto;html=1;" edge="1" parent="WIyWlLk6GJQsqaUBKTNV-1" source="Zlj9B1IX_NMJsLDkZR1o-14" target="Zlj9B1IX_NMJsLDkZR1o-22">
          <mxGeometry relative="1" as="geometry">
            <mxPoint x="670" y="-550" as="targetPoint" />
          </mxGeometry>
        </mxCell>
        <mxCell id="Zlj9B1IX_NMJsLDkZR1o-55" style="edgeStyle=orthogonalEdgeStyle;rounded=0;orthogonalLoop=1;jettySize=auto;html=1;" edge="1" parent="WIyWlLk6GJQsqaUBKTNV-1" source="Zlj9B1IX_NMJsLDkZR1o-24" target="Zlj9B1IX_NMJsLDkZR1o-56">
          <mxGeometry relative="1" as="geometry">
            <mxPoint x="150" y="-330" as="targetPoint" />
          </mxGeometry>
        </mxCell>
        <mxCell id="Zlj9B1IX_NMJsLDkZR1o-24" value="ИИ формирует ответ &quot;Место не&lt;span style=&quot;color: rgba(0, 0, 0, 0); font-family: monospace; font-size: 0px; text-align: start; text-wrap: nowrap;&quot;&gt;%3CmxGraphModel%3E%3Croot%3E%3CmxCell%20id%3D%220%22%2F%3E%3CmxCell%20id%3D%221%22%20parent%3D%220%22%2F%3E%3CmxCell%20id%3D%222%22%20value%3D%22%D0%98%D0%98%20%D0%BE%D1%82%D0%BF%D1%80%D0%B0%D0%B2%D0%BB%D1%8F%D0%B5%D1%82%20%D0%B7%D0%B0%D0%BF%D1%80%D0%BE%D1%81%20%D0%BD%D0%B0%20%D1%81%D0%B5%D1%80%D0%B2%D0%B5%D1%80%20%D0%B1%D1%80%D0%BE%D0%BD%D0%B8%D1%80%D0%BE%D0%B2%D0%B0%D0%BD%D0%B8%D1%8F%20(%D0%B4%D0%B0%D1%82%D0%B0%20%D0%B8%20%D0%BC%D0%B5%D1%81%D1%82%D0%BE)%22%20style%3D%22rounded%3D1%3BwhiteSpace%3Dwrap%3Bhtml%3D1%3B%22%20vertex%3D%221%22%20parent%3D%221%22%3E%3CmxGeometry%20x%3D%22339%22%20y%3D%22-870%22%20width%3D%22150%22%20height%3D%2270%22%20as%3D%22geometry%22%2F%3E%3C%2FmxCell%3E%3C%2Froot%3E%3C%2FmxGraphModel%3E&lt;/span&gt;доступно&quot;" style="rounded=1;whiteSpace=wrap;html=1;" vertex="1" parent="WIyWlLk6GJQsqaUBKTNV-1">
          <mxGeometry x="75" y="-430" width="150" height="70" as="geometry" />
        </mxCell>
        <mxCell id="Zlj9B1IX_NMJsLDkZR1o-53" style="edgeStyle=orthogonalEdgeStyle;rounded=0;orthogonalLoop=1;jettySize=auto;html=1;" edge="1" parent="WIyWlLk6GJQsqaUBKTNV-1" source="Zlj9B1IX_NMJsLDkZR1o-25" target="Zlj9B1IX_NMJsLDkZR1o-54">
          <mxGeometry relative="1" as="geometry">
            <mxPoint x="320" y="-330" as="targetPoint" />
          </mxGeometry>
        </mxCell>
        <mxCell id="Zlj9B1IX_NMJsLDkZR1o-25" value="ИИ формирует ответ &quot;Время недоступно&quot;" style="rounded=1;whiteSpace=wrap;html=1;" vertex="1" parent="WIyWlLk6GJQsqaUBKTNV-1">
          <mxGeometry x="245" y="-430" width="150" height="70" as="geometry" />
        </mxCell>
        <mxCell id="Zlj9B1IX_NMJsLDkZR1o-51" style="edgeStyle=orthogonalEdgeStyle;rounded=0;orthogonalLoop=1;jettySize=auto;html=1;" edge="1" parent="WIyWlLk6GJQsqaUBKTNV-1" source="Zlj9B1IX_NMJsLDkZR1o-27" target="Zlj9B1IX_NMJsLDkZR1o-52">
          <mxGeometry relative="1" as="geometry">
            <mxPoint x="519.9999999999998" y="-320" as="targetPoint" />
          </mxGeometry>
        </mxCell>
        <mxCell id="Zlj9B1IX_NMJsLDkZR1o-27" value="ИИ формирует ответ &quot;Нет свободных мест&quot;" style="rounded=1;whiteSpace=wrap;html=1;" vertex="1" parent="WIyWlLk6GJQsqaUBKTNV-1">
          <mxGeometry x="445" y="-430" width="150" height="70" as="geometry" />
        </mxCell>
        <mxCell id="Zlj9B1IX_NMJsLDkZR1o-35" style="edgeStyle=orthogonalEdgeStyle;rounded=0;orthogonalLoop=1;jettySize=auto;html=1;entryX=0.5;entryY=0;entryDx=0;entryDy=0;" edge="1" parent="WIyWlLk6GJQsqaUBKTNV-1" source="Zlj9B1IX_NMJsLDkZR1o-28" target="Zlj9B1IX_NMJsLDkZR1o-36">
          <mxGeometry relative="1" as="geometry">
            <mxPoint x="689.9999999999998" y="-300" as="targetPoint" />
          </mxGeometry>
        </mxCell>
        <mxCell id="Zlj9B1IX_NMJsLDkZR1o-28" value="ИИ формирует положительный ответ и предлагает записаться." style="rounded=1;whiteSpace=wrap;html=1;" vertex="1" parent="WIyWlLk6GJQsqaUBKTNV-1">
          <mxGeometry x="615" y="-430" width="150" height="70" as="geometry" />
        </mxCell>
        <mxCell id="Zlj9B1IX_NMJsLDkZR1o-37" style="edgeStyle=orthogonalEdgeStyle;rounded=0;orthogonalLoop=1;jettySize=auto;html=1;" edge="1" parent="WIyWlLk6GJQsqaUBKTNV-1" source="Zlj9B1IX_NMJsLDkZR1o-36" target="Zlj9B1IX_NMJsLDkZR1o-38">
          <mxGeometry relative="1" as="geometry">
            <mxPoint x="527.4999999999998" y="-110" as="targetPoint" />
          </mxGeometry>
        </mxCell>
        <mxCell id="Zlj9B1IX_NMJsLDkZR1o-39" style="edgeStyle=orthogonalEdgeStyle;rounded=0;orthogonalLoop=1;jettySize=auto;html=1;" edge="1" parent="WIyWlLk6GJQsqaUBKTNV-1" source="Zlj9B1IX_NMJsLDkZR1o-36" target="Zlj9B1IX_NMJsLDkZR1o-40">
          <mxGeometry relative="1" as="geometry">
            <mxPoint x="757.4999999999998" y="-130" as="targetPoint" />
          </mxGeometry>
        </mxCell>
        <mxCell id="Zlj9B1IX_NMJsLDkZR1o-36" value="Ответ пользователя" style="rhombus;whiteSpace=wrap;html=1;" vertex="1" parent="WIyWlLk6GJQsqaUBKTNV-1">
          <mxGeometry x="587.5" y="-240" width="110" height="80" as="geometry" />
        </mxCell>
        <mxCell id="Zlj9B1IX_NMJsLDkZR1o-41" style="edgeStyle=orthogonalEdgeStyle;rounded=0;orthogonalLoop=1;jettySize=auto;html=1;" edge="1" parent="WIyWlLk6GJQsqaUBKTNV-1" source="Zlj9B1IX_NMJsLDkZR1o-38" target="Zlj9B1IX_NMJsLDkZR1o-42">
          <mxGeometry relative="1" as="geometry">
            <mxPoint x="532.4999999999998" y="2.2737367544323206e-13" as="targetPoint" />
          </mxGeometry>
        </mxCell>
        <mxCell id="Zlj9B1IX_NMJsLDkZR1o-38" value="Утвердительный" style="rounded=1;whiteSpace=wrap;html=1;" vertex="1" parent="WIyWlLk6GJQsqaUBKTNV-1">
          <mxGeometry x="472.4999999999998" y="-120" width="120" height="60" as="geometry" />
        </mxCell>
        <mxCell id="Zlj9B1IX_NMJsLDkZR1o-47" style="edgeStyle=orthogonalEdgeStyle;rounded=0;orthogonalLoop=1;jettySize=auto;html=1;" edge="1" parent="WIyWlLk6GJQsqaUBKTNV-1" source="Zlj9B1IX_NMJsLDkZR1o-40" target="Zlj9B1IX_NMJsLDkZR1o-48">
          <mxGeometry relative="1" as="geometry">
            <mxPoint x="737.4999999999998" y="-30" as="targetPoint" />
          </mxGeometry>
        </mxCell>
        <mxCell id="Zlj9B1IX_NMJsLDkZR1o-40" value="Отрицательный" style="rounded=1;whiteSpace=wrap;html=1;" vertex="1" parent="WIyWlLk6GJQsqaUBKTNV-1">
          <mxGeometry x="677.4999999999998" y="-120" width="120" height="60" as="geometry" />
        </mxCell>
        <mxCell id="Zlj9B1IX_NMJsLDkZR1o-43" style="edgeStyle=orthogonalEdgeStyle;rounded=0;orthogonalLoop=1;jettySize=auto;html=1;" edge="1" parent="WIyWlLk6GJQsqaUBKTNV-1" source="Zlj9B1IX_NMJsLDkZR1o-42" target="Zlj9B1IX_NMJsLDkZR1o-44">
          <mxGeometry relative="1" as="geometry">
            <mxPoint x="532.4999999999998" y="90.00000000000023" as="targetPoint" />
          </mxGeometry>
        </mxCell>
        <mxCell id="Zlj9B1IX_NMJsLDkZR1o-42" value="ИИ формирует ответ предлагая напомнить о дате заранее." style="rounded=1;whiteSpace=wrap;html=1;" vertex="1" parent="WIyWlLk6GJQsqaUBKTNV-1">
          <mxGeometry x="470" y="-30" width="125" height="70" as="geometry" />
        </mxCell>
        <mxCell id="Zlj9B1IX_NMJsLDkZR1o-45" style="edgeStyle=orthogonalEdgeStyle;rounded=0;orthogonalLoop=1;jettySize=auto;html=1;" edge="1" parent="WIyWlLk6GJQsqaUBKTNV-1" source="Zlj9B1IX_NMJsLDkZR1o-44" target="Zlj9B1IX_NMJsLDkZR1o-46">
          <mxGeometry relative="1" as="geometry">
            <mxPoint x="532.5" y="190" as="targetPoint" />
          </mxGeometry>
        </mxCell>
        <mxCell id="Zlj9B1IX_NMJsLDkZR1o-44" value="Ответ пользователя с датой и временем" style="rounded=1;whiteSpace=wrap;html=1;" vertex="1" parent="WIyWlLk6GJQsqaUBKTNV-1">
          <mxGeometry x="472.4999999999998" y="80.00000000000023" width="120" height="60" as="geometry" />
        </mxCell>
        <mxCell id="Zlj9B1IX_NMJsLDkZR1o-49" style="edgeStyle=orthogonalEdgeStyle;rounded=0;orthogonalLoop=1;jettySize=auto;html=1;" edge="1" parent="WIyWlLk6GJQsqaUBKTNV-1" source="Zlj9B1IX_NMJsLDkZR1o-46" target="Zlj9B1IX_NMJsLDkZR1o-50">
          <mxGeometry relative="1" as="geometry">
            <mxPoint x="532.4999999999998" y="330.0000000000002" as="targetPoint" />
          </mxGeometry>
        </mxCell>
        <mxCell id="Zlj9B1IX_NMJsLDkZR1o-46" value="ИИ извлекает дату и время из ответа пользователя и создает напоминание" style="rounded=1;whiteSpace=wrap;html=1;" vertex="1" parent="WIyWlLk6GJQsqaUBKTNV-1">
          <mxGeometry x="470" y="180" width="125" height="90" as="geometry" />
        </mxCell>
        <mxCell id="Zlj9B1IX_NMJsLDkZR1o-48" value="ИИ сообщает об успешной регистрации" style="rounded=1;whiteSpace=wrap;html=1;" vertex="1" parent="WIyWlLk6GJQsqaUBKTNV-1">
          <mxGeometry x="677.4999999999998" y="-20" width="120" height="60" as="geometry" />
        </mxCell>
        <mxCell id="Zlj9B1IX_NMJsLDkZR1o-50" value="ИИ сообщает об успешной регистрации и создании напоминания" style="rounded=1;whiteSpace=wrap;html=1;" vertex="1" parent="WIyWlLk6GJQsqaUBKTNV-1">
          <mxGeometry x="470" y="310" width="125" height="100" as="geometry" />
        </mxCell>
        <mxCell id="Zlj9B1IX_NMJsLDkZR1o-52" value="Пользователю предлагается поменять время и место" style="rounded=1;whiteSpace=wrap;html=1;" vertex="1" parent="WIyWlLk6GJQsqaUBKTNV-1">
          <mxGeometry x="459.9999999999998" y="-330" width="120" height="60" as="geometry" />
        </mxCell>
        <mxCell id="Zlj9B1IX_NMJsLDkZR1o-54" value="Пользователю предлагается поменять время" style="rounded=1;whiteSpace=wrap;html=1;" vertex="1" parent="WIyWlLk6GJQsqaUBKTNV-1">
          <mxGeometry x="260" y="-340" width="120" height="60" as="geometry" />
        </mxCell>
        <mxCell id="Zlj9B1IX_NMJsLDkZR1o-56" value="Пользователю предлагается поменять место" style="rounded=1;whiteSpace=wrap;html=1;" vertex="1" parent="WIyWlLk6GJQsqaUBKTNV-1">
          <mxGeometry x="90" y="-340" width="120" height="60" as="geometry" />
        </mxCell>
      </root>
    </mxGraphModel>
  </diagram>
</mxfile>
